<?xml version="1.0" encoding="UTF-8"?>
<svg id="Camada_2" data-name="Camada 2" xmlns="http://www.w3.org/2000/svg" viewBox="0 0 184.21 39.51">
  <defs>
    <style>
      .cls-1 {
        fill: #191819;
      }
    </style>
  </defs>
  <g id="Camada_1-2" data-name="Camada 1">
    <g>
      <g>
        <path id="path9" class="cls-1" d="M169.42,19.74c0,5.94-4.82,10.76-10.76,10.76h0c-5.94,0-10.76-4.82-10.76-10.76h0c0-5.94,4.82-10.76,10.76-10.76h0c5.94,0,10.76,4.82,10.76,10.76h0ZM158.74,28.02c4.42-.04,7.98-3.78,7.94-8.35h0c-.04-4.57-3.66-8.25-8.08-8.21-4.42.04-7.98,3.78-7.94,8.35h0c.04,4.57,3.66,8.25,8.08,8.21Z"/>
        <path id="path10" class="cls-1" d="M184.21,23.81v1.63c-1.46,4.34-4.56,5.9-9.28,4.67-2.3-.6-3.95-2.27-4.94-5-.04-.1.01-.21.11-.25l2.03-.81c.13-.05.21-.01.27.11,1.18,2.9,3.15,4.13,5.89,3.71,2.26-.34,3.83-2.45,2.84-4.66-1.04-2.35-5.14-2.98-7.27-4.04-4.69-2.35-3.96-8.26.74-9.74,3.82-1.2,6.77-.06,8.85,3.42.07.11.03.26-.09.33,0,0-.02,0-.03.01l-1.95.88c-.11.05-.23,0-.29-.09-1.28-2.2-3.09-2.95-5.44-2.24-2,.61-3.18,3.04-1.34,4.56,1.65,1.36,3.96,1.7,6.07,2.65,2.13.97,3.41,2.59,3.83,4.86h0Z"/>
        <path id="path11" class="cls-1" d="M69.63,17.55c2.07-2.15,4.38-2.63,6.92-1.43,1.74.81,2.63,2.35,2.69,4.63.07,2.71.07,5.75.02,9.11,0,.13-.07.2-.2.2h-2.2c-.12,0-.18-.07-.18-.18-.08-2.47-.08-4.84.01-7.11.11-2.81-.75-5.38-4.21-4.79-2.13.36-3.1,2.5-3.08,4.51,0,2.49.01,4.92.01,7.27,0,.19-.1.29-.29.29h-1.94c-.25.01-.37-.11-.37-.36V9.76c0-.23.11-.35.34-.34l2,.05c.2,0,.29.11.29.3l-.13,7.66c0,.29.1.33.3.12h0Z"/>
        <path id="path15" class="cls-1" d="M57.73,28.05c1.88.09,3.27-.66,4.16-2.25.13-.23.32-.3.56-.19l1.61.71c.25.11.31.28.18.51-1.52,2.75-3.93,3.94-7.23,3.55-5.05-.58-7.48-6.04-5.63-10.44,2.31-5.5,9.88-6.14,12.82-.73.11.2.06.34-.15.42l-1.78.77c-.2.09-.44,0-.54-.2-.73-1.47-1.9-2.24-3.49-2.31-6.08-.29-6.46,9.87-.5,10.15h0Z"/>
        <path id="path16" class="cls-1" d="M98.59,30.54c-4.07.04-7.4-3.3-7.44-7.47-.04-4.17,3.22-7.58,7.28-7.62,4.07-.04,7.4,3.3,7.44,7.47.04,4.17-3.22,7.58-7.28,7.62ZM98.52,28.1c2.59,0,4.69-2.3,4.69-5.12h0c0-2.83-2.11-5.11-4.7-5.11s-4.69,2.3-4.69,5.12h0c0,2.83,2.11,5.11,4.7,5.11Z"/>
        <path id="path17" class="cls-1" d="M111.06,17.56c.9-.76,1.71-1.52,2.89-1.82,2.07-.52,3.77-.1,5.11,1.28.19.19.33.43.42.68.03.09.08.16.16.22.18.14.33.11.46-.07,1.02-1.45,2.38-2.22,4.09-2.31,3.42-.17,5.3,1.48,5.64,4.95.14,1.48.17,4.56.06,9.25,0,.21-.11.31-.32.31h-2.13c-.21,0-.31-.11-.31-.32.02-2.66.01-5.48-.01-8.46-.04-5.28-6.49-3.92-6.6.32-.09,3.32-.11,6.01-.06,8.09,0,.24-.11.36-.36.36h-2.07c-.23,0-.35-.12-.34-.36.05-2.63.04-5.42-.01-8.36-.11-5.35-6.43-3.97-6.59.18-.12,2.96-.14,5.69-.07,8.19,0,.24-.11.36-.34.35h-2.12c-.15,0-.27-.12-.27-.27v-13.43c0-.32.15-.48.47-.48h1.7c.3.01.44.17.41.47l-.1,1.02c-.04.33.07.39.32.18h0Z"/>
        <path id="path18" class="cls-1" d="M134.83,23.95c.29,1.71,1.04,2.87,2.25,3.49,2.48,1.28,4.56.75,6.24-1.58.07-.09.16-.12.26-.08l1.87.81c.12.05.15.14.09.25-1.32,2.65-3.91,3.87-6.86,3.58-7.17-.69-8.98-10.69-2.79-14.11,2.61-1.44,6.47-.95,8.46,1.44,1.26,1.52,1.82,3.31,1.67,5.35-.02.3-.18.45-.48.45l-10.36-.02c-.28,0-.4.14-.35.42h0ZM135.26,21.31l7.86-.03c.05,0,.09-.04.09-.09v-.06c0-1.76-1.78-3.17-3.96-3.17h-.16c-2.18,0-3.94,1.44-3.93,3.2v.06c0,.05.04.09.09.09h0Z"/>
        <path id="path19" class="cls-1" d="M85.45,17.82c1.17-1.89,3.02-2.54,5.57-1.95.11.03.18.14.16.25,0,.01,0,.02-.01.04l-.78,1.97c-.06.16-.24.25-.41.22-3.07-.67-4.91,1.52-4.81,4.47.08,2.55.09,4.88,0,6.98,0,.18-.1.27-.28.27h-2.11c-.2-.01-.36-.17-.36-.36v-13.47c0-.22.11-.34.34-.34h1.95c.21.01.37.18.37.38,0,.01,0,.03,0,.04-.07.5-.06.98.03,1.45.06.31.18.33.34.06h0Z"/>
      </g>
      <g>
        <path class="cls-1" d="M23.1,28.41l-6.14,10.86c-6.78-.87-12.02-5.14-14.69-10.42C-.99,22.37-.81,15.23,3.27,9.1l9.31,15.8c2.07,3.51,6.06,4.37,10.52,3.5Z"/>
        <path class="cls-1" d="M20.19,10.79c-4.76.02-8.12,2.83-9.36,7.58L4.41,7.42C8.76,2.13,15.11-.61,21.99.12c6.16.65,12.22,4.11,15.46,10.58l-17.26.09Z"/>
        <path class="cls-1" d="M39.58,21.41c-.76,10.58-9.84,18.57-20.62,18.08l8.39-14.62c2.35-4.09,1.99-8.58-1.65-12.13l12.73-.02c1,2.67,1.38,5.39,1.15,8.69Z"/>
        <path class="cls-1" d="M22.05,12.93c3.77,1.17,5.52,4.76,4.92,8.13s-3.7,6.01-7.1,5.94-6.54-2.51-7.1-6,1.29-7.06,5.06-8.07c1.04-.28,3.04-.36,4.22,0Z"/>
      </g>
    </g>
  </g>
</svg>